# xmcd CD database file
#
# Track frame offsets:
#	150
#	14427
#	30007
#
# Disc length: 663 seconds
#
# Revision: 0
# Processed by: cddbd v1.5.1PL0 Copyright (c) Steve Scherf et al.
# Submitted via: CDex 1.51
#
DISCID=12029503
DTITLE=Biscuit Fan - 昼下がりの空に
DYEAR=1999
DGENRE=Rock
TTITLE0=昼下がりの空に
TTITLE1=新しい日々
TTITLE2=ハンバーガーヒル
EXTD=YEAR: 1999
EXTT0=
EXTT1=
EXTT2=
PLAYORDER=
